<svg xmlns="http://www.w3.org/2000/svg" xmlns:xlink="http://www.w3.org/1999/xlink" width="48" zoomAndPan="magnify" viewBox="0 0 36 36.000001" height="48" preserveAspectRatio="xMidYMid meet" version="1.0"><defs><clipPath id="3b95dddbbf"><path d="M 0.488281 0 L 35.511719 0 L 35.511719 35.027344 L 0.488281 35.027344 Z M 0.488281 0 " clip-rule="nonzero"/></clipPath><clipPath id="6d0c0695da"><path d="M 2.019531 1.53125 L 34 1.53125 L 34 33.640625 L 2.019531 33.640625 Z M 2.019531 1.53125 " clip-rule="nonzero"/></clipPath></defs><g clip-path="url(#3b95dddbbf)"><path fill="#ffffff" d="M 0.488281 0 L 35.511719 0 L 35.511719 35.027344 L 0.488281 35.027344 Z M 0.488281 0 " fill-opacity="1" fill-rule="nonzero"/><path fill="#ffffff" d="M 0.488281 0 L 35.511719 0 L 35.511719 35.027344 L 0.488281 35.027344 Z M 0.488281 0 " fill-opacity="1" fill-rule="nonzero"/></g><g clip-path="url(#6d0c0695da)"><path fill="#54aaba" d="M 33.984375 17.519531 C 33.984375 18.042969 33.960938 18.5625 33.910156 19.085938 C 33.859375 19.605469 33.78125 20.125 33.679688 20.636719 C 33.578125 21.148438 33.449219 21.65625 33.296875 22.15625 C 33.144531 22.660156 32.96875 23.152344 32.769531 23.632812 C 32.570312 24.117188 32.347656 24.589844 32.097656 25.050781 C 31.851562 25.511719 31.582031 25.960938 31.292969 26.398438 C 31.003906 26.832031 30.691406 27.253906 30.359375 27.65625 C 30.027344 28.0625 29.675781 28.449219 29.304688 28.820312 C 28.933594 29.1875 28.546875 29.539062 28.144531 29.871094 C 27.738281 30.203125 27.320312 30.515625 26.882812 30.804688 C 26.449219 31.097656 26 31.367188 25.539062 31.613281 C 25.078125 31.859375 24.605469 32.082031 24.121094 32.285156 C 23.636719 32.484375 23.144531 32.660156 22.644531 32.8125 C 22.144531 32.964844 21.636719 33.089844 21.121094 33.191406 C 20.609375 33.292969 20.09375 33.371094 19.570312 33.421875 C 19.050781 33.472656 18.527344 33.5 18.003906 33.5 C 17.480469 33.5 16.960938 33.472656 16.4375 33.421875 C 15.917969 33.371094 15.402344 33.292969 14.886719 33.191406 C 14.375 33.089844 13.867188 32.964844 13.367188 32.8125 C 12.863281 32.660156 12.371094 32.484375 11.890625 32.285156 C 11.40625 32.082031 10.933594 31.859375 10.472656 31.613281 C 10.011719 31.367188 9.5625 31.097656 9.125 30.804688 C 8.691406 30.515625 8.269531 30.203125 7.867188 29.871094 C 7.460938 29.539062 7.074219 29.1875 6.703125 28.820312 C 6.335938 28.449219 5.984375 28.0625 5.652344 27.65625 C 5.320312 27.253906 5.007812 26.832031 4.71875 26.398438 C 4.425781 25.960938 4.15625 25.511719 3.910156 25.050781 C 3.664062 24.589844 3.441406 24.117188 3.242188 23.632812 C 3.039062 23.152344 2.863281 22.660156 2.710938 22.15625 C 2.558594 21.65625 2.433594 21.148438 2.332031 20.636719 C 2.230469 20.121094 2.152344 19.605469 2.101562 19.085938 C 2.050781 18.5625 2.023438 18.042969 2.023438 17.519531 C 2.023438 16.996094 2.050781 16.472656 2.101562 15.953125 C 2.152344 15.429688 2.230469 14.914062 2.332031 14.402344 C 2.433594 13.886719 2.558594 13.378906 2.710938 12.878906 C 2.863281 12.378906 3.039062 11.886719 3.242188 11.402344 C 3.441406 10.917969 3.664062 10.445312 3.910156 9.984375 C 4.15625 9.523438 4.425781 9.074219 4.71875 8.640625 C 5.007812 8.203125 5.320312 7.785156 5.652344 7.378906 C 5.984375 6.976562 6.335938 6.589844 6.703125 6.21875 C 7.074219 5.847656 7.460938 5.496094 7.867188 5.164062 C 8.269531 4.832031 8.691406 4.523438 9.125 4.230469 C 9.5625 3.941406 10.011719 3.671875 10.472656 3.425781 C 10.933594 3.179688 11.40625 2.953125 11.890625 2.753906 C 12.371094 2.554688 12.863281 2.378906 13.367188 2.226562 C 13.867188 2.074219 14.375 1.945312 14.886719 1.84375 C 15.402344 1.742188 15.917969 1.664062 16.4375 1.613281 C 16.960938 1.5625 17.480469 1.539062 18.003906 1.539062 C 18.527344 1.539062 19.050781 1.5625 19.570312 1.613281 C 20.09375 1.664062 20.609375 1.742188 21.121094 1.84375 C 21.636719 1.945312 22.144531 2.074219 22.644531 2.226562 C 23.144531 2.378906 23.636719 2.554688 24.121094 2.753906 C 24.605469 2.953125 25.078125 3.179688 25.539062 3.425781 C 26 3.671875 26.449219 3.941406 26.882812 4.230469 C 27.320312 4.523438 27.738281 4.832031 28.144531 5.164062 C 28.546875 5.496094 28.933594 5.847656 29.304688 6.21875 C 29.675781 6.589844 30.027344 6.976562 30.359375 7.378906 C 30.691406 7.785156 31.003906 8.203125 31.292969 8.640625 C 31.582031 9.074219 31.851562 9.523438 32.097656 9.984375 C 32.347656 10.445312 32.570312 10.917969 32.769531 11.402344 C 32.96875 11.886719 33.144531 12.378906 33.296875 12.878906 C 33.449219 13.378906 33.578125 13.886719 33.679688 14.402344 C 33.78125 14.914062 33.859375 15.429688 33.910156 15.953125 C 33.960938 16.472656 33.984375 16.996094 33.984375 17.519531 Z M 33.984375 17.519531 " fill-opacity="1" fill-rule="nonzero"/></g><path fill="#002e35" d="M 28.542969 22.683594 C 28.542969 24.257812 27.222656 25.535156 25.597656 25.535156 L 10.125 25.535156 C 8.5 25.535156 7.179688 24.257812 7.179688 22.683594 L 7.179688 11.71875 C 7.179688 10.144531 8.5 8.867188 10.125 8.867188 L 25.597656 8.867188 C 27.222656 8.867188 28.542969 10.144531 28.542969 11.71875 Z M 28.542969 22.683594 " fill-opacity="1" fill-rule="nonzero"/><path fill="#adadad" d="M 26.800781 21.214844 C 26.800781 22.390625 25.699219 23.34375 24.335938 23.34375 L 11.386719 23.34375 C 10.023438 23.34375 8.921875 22.390625 8.921875 21.214844 L 8.921875 13.027344 C 8.921875 11.855469 10.023438 10.902344 11.386719 10.902344 L 24.335938 10.902344 C 25.699219 10.902344 26.800781 11.855469 26.800781 13.027344 Z M 26.800781 21.214844 " fill-opacity="1" fill-rule="nonzero"/><path fill="#adadad" d="M 18.464844 9.953125 C 18.464844 10.144531 18.398438 10.304688 18.261719 10.441406 C 18.128906 10.574219 17.964844 10.644531 17.773438 10.644531 C 17.582031 10.644531 17.421875 10.574219 17.285156 10.441406 C 17.152344 10.304688 17.082031 10.144531 17.082031 9.953125 C 17.082031 9.761719 17.152344 9.597656 17.285156 9.464844 C 17.421875 9.328125 17.582031 9.261719 17.773438 9.261719 C 17.964844 9.261719 18.128906 9.328125 18.261719 9.464844 C 18.398438 9.597656 18.464844 9.761719 18.464844 9.953125 Z M 18.464844 9.953125 " fill-opacity="1" fill-rule="nonzero"/><path fill="#808080" d="M 5.722656 22.519531 C 5.488281 22.855469 5.351562 23.265625 5.351562 23.707031 C 5.351562 24.855469 6.28125 25.785156 7.429688 25.785156 L 28.117188 25.785156 C 29.265625 25.785156 30.195312 24.855469 30.195312 23.707031 C 30.195312 23.265625 30.058594 22.855469 29.824219 22.519531 Z M 5.722656 22.519531 " fill-opacity="1" fill-rule="nonzero"/><path fill="#002e35" d="M 13.574219 22.519531 L 21.476562 22.519531 L 21.476562 24.402344 L 13.574219 24.402344 Z M 13.574219 22.519531 " fill-opacity="1" fill-rule="nonzero"/><path fill="#002e35" d="M 24.230469 16.796875 C 24.230469 17.867188 23.363281 18.730469 22.296875 18.730469 L 13.179688 18.730469 C 12.113281 18.730469 11.246094 17.867188 11.246094 16.796875 C 11.246094 15.730469 12.113281 14.863281 13.179688 14.863281 L 22.296875 14.863281 C 23.363281 14.863281 24.230469 15.730469 24.230469 16.796875 Z M 24.230469 16.796875 " fill-opacity="1" fill-rule="nonzero"/><path fill="#adadad" d="M 13.65625 17.847656 C 13.589844 17.847656 13.53125 17.792969 13.53125 17.722656 L 13.53125 15.871094 C 13.53125 15.800781 13.589844 15.746094 13.65625 15.746094 C 13.726562 15.746094 13.78125 15.800781 13.78125 15.871094 L 13.78125 17.722656 C 13.78125 17.792969 13.726562 17.847656 13.65625 17.847656 Z M 13.65625 17.847656 " fill-opacity="1" fill-rule="nonzero"/><path fill="#adadad" d="M 12.960938 17.578125 C 12.929688 17.578125 12.894531 17.566406 12.871094 17.539062 C 12.824219 17.492188 12.824219 17.414062 12.871094 17.363281 L 14.179688 16.054688 C 14.230469 16.003906 14.308594 16.003906 14.359375 16.054688 C 14.40625 16.101562 14.40625 16.183594 14.359375 16.230469 L 13.050781 17.539062 C 13.023438 17.566406 12.992188 17.578125 12.960938 17.578125 Z M 12.960938 17.578125 " fill-opacity="1" fill-rule="nonzero"/><path fill="#adadad" d="M 14.3125 17.578125 C 14.28125 17.578125 14.25 17.566406 14.222656 17.539062 L 12.914062 16.230469 C 12.863281 16.183594 12.863281 16.101562 12.914062 16.054688 C 12.964844 16.003906 13.042969 16.003906 13.089844 16.054688 L 14.402344 17.363281 C 14.449219 17.414062 14.449219 17.492188 14.402344 17.539062 C 14.375 17.566406 14.34375 17.578125 14.3125 17.578125 Z M 14.3125 17.578125 " fill-opacity="1" fill-rule="nonzero"/><path fill="#adadad" d="M 14.582031 16.921875 L 12.730469 16.921875 C 12.664062 16.921875 12.605469 16.867188 12.605469 16.796875 C 12.605469 16.726562 12.664062 16.671875 12.730469 16.671875 L 14.582031 16.671875 C 14.652344 16.671875 14.707031 16.726562 14.707031 16.796875 C 14.707031 16.867188 14.652344 16.921875 14.582031 16.921875 Z M 14.582031 16.921875 " fill-opacity="1" fill-rule="nonzero"/><path fill="#adadad" d="M 17.0625 17.847656 C 16.992188 17.847656 16.9375 17.792969 16.9375 17.722656 L 16.9375 15.871094 C 16.9375 15.800781 16.992188 15.746094 17.0625 15.746094 C 17.128906 15.746094 17.1875 15.800781 17.1875 15.871094 L 17.1875 17.722656 C 17.1875 17.792969 17.128906 17.847656 17.0625 17.847656 Z M 17.0625 17.847656 " fill-opacity="1" fill-rule="nonzero"/><path fill="#adadad" d="M 16.363281 17.578125 C 16.332031 17.578125 16.300781 17.566406 16.277344 17.539062 C 16.226562 17.492188 16.226562 17.414062 16.277344 17.363281 L 17.585938 16.054688 C 17.632812 16.003906 17.714844 16.003906 17.761719 16.054688 C 17.8125 16.101562 17.8125 16.183594 17.761719 16.230469 L 16.453125 17.539062 C 16.429688 17.566406 16.394531 17.578125 16.363281 17.578125 Z M 16.363281 17.578125 " fill-opacity="1" fill-rule="nonzero"/><path fill="#adadad" d="M 17.714844 17.578125 C 17.683594 17.578125 17.652344 17.566406 17.625 17.539062 L 16.316406 16.230469 C 16.269531 16.183594 16.269531 16.101562 16.316406 16.054688 C 16.367188 16.003906 16.445312 16.003906 16.496094 16.054688 L 17.804688 17.363281 C 17.851562 17.414062 17.851562 17.492188 17.804688 17.539062 C 17.78125 17.566406 17.746094 17.578125 17.714844 17.578125 Z M 17.714844 17.578125 " fill-opacity="1" fill-rule="nonzero"/><path fill="#adadad" d="M 17.988281 16.921875 L 16.132812 16.921875 C 16.066406 16.921875 16.007812 16.867188 16.007812 16.796875 C 16.007812 16.726562 16.066406 16.671875 16.132812 16.671875 L 17.988281 16.671875 C 18.054688 16.671875 18.113281 16.726562 18.113281 16.796875 C 18.113281 16.867188 18.054688 16.921875 17.988281 16.921875 Z M 17.988281 16.921875 " fill-opacity="1" fill-rule="nonzero"/><path fill="#adadad" d="M 20.214844 17.847656 C 20.148438 17.847656 20.089844 17.792969 20.089844 17.722656 L 20.089844 15.871094 C 20.089844 15.800781 20.148438 15.746094 20.214844 15.746094 C 20.285156 15.746094 20.339844 15.800781 20.339844 15.871094 L 20.339844 17.722656 C 20.339844 17.792969 20.285156 17.847656 20.214844 17.847656 Z M 20.214844 17.847656 " fill-opacity="1" fill-rule="nonzero"/><path fill="#adadad" d="M 19.519531 17.578125 C 19.488281 17.578125 19.457031 17.566406 19.429688 17.539062 C 19.382812 17.492188 19.382812 17.414062 19.429688 17.363281 L 20.742188 16.054688 C 20.789062 16.003906 20.867188 16.003906 20.917969 16.054688 C 20.964844 16.101562 20.964844 16.183594 20.917969 16.230469 L 19.609375 17.539062 C 19.582031 17.566406 19.550781 17.578125 19.519531 17.578125 Z M 19.519531 17.578125 " fill-opacity="1" fill-rule="nonzero"/><path fill="#adadad" d="M 20.871094 17.578125 C 20.839844 17.578125 20.808594 17.566406 20.78125 17.539062 L 19.472656 16.230469 C 19.425781 16.183594 19.425781 16.101562 19.472656 16.054688 C 19.523438 16.003906 19.601562 16.003906 19.652344 16.054688 L 20.960938 17.363281 C 21.007812 17.414062 21.007812 17.492188 20.960938 17.539062 C 20.933594 17.566406 20.902344 17.578125 20.871094 17.578125 Z M 20.871094 17.578125 " fill-opacity="1" fill-rule="nonzero"/><path fill="#adadad" d="M 21.140625 16.921875 L 19.289062 16.921875 C 19.222656 16.921875 19.164062 16.867188 19.164062 16.796875 C 19.164062 16.726562 19.222656 16.671875 19.289062 16.671875 L 21.140625 16.671875 C 21.210938 16.671875 21.265625 16.726562 21.265625 16.796875 C 21.265625 16.867188 21.210938 16.921875 21.140625 16.921875 Z M 21.140625 16.921875 " fill-opacity="1" fill-rule="nonzero"/><path fill="#adadad" d="M 23.332031 17.847656 L 21.917969 17.847656 C 21.847656 17.847656 21.792969 17.792969 21.792969 17.722656 C 21.792969 17.652344 21.847656 17.597656 21.917969 17.597656 L 23.332031 17.597656 C 23.398438 17.597656 23.457031 17.652344 23.457031 17.722656 C 23.457031 17.792969 23.398438 17.847656 23.332031 17.847656 Z M 23.332031 17.847656 " fill-opacity="1" fill-rule="nonzero"/></svg>